:SAMPLES-PER-SECOND 30
:FULLY-SPECIFIED
:DEGREES
64
root  -46.9702 39.6578 1.65979 70.6771 85.4742 74.2143
RightUpLeg  -19.0028 3.58254 -7.99833
RightLeg  52.5202 2.75963 3.51516
RightFoot  -1.90618 -0.719204 8.58632
RightToes  3.49245e-010 0 -3.6325e-017
Spine  6.32075 -0.356516 -6.70195
Spine1  5.6762 -0.901514 -1.59314
HEad  -4.2534 3.8919 -1.92717
LeftShoulder1  -0.648387 5.19585 -32.1709
LeftArm  4.65985 -7.28561 -42.0289
LeftForeArm  26.4311 -15.741 -6.89762
LeftHand  -0.0286874 7.46822 0.615188
RightShoulder  -0.889826 -6.00789 28.9491
RightArm  22.6461 -12.3266 46.5627
RightForeArm  15.1744 16.5571 5.70148
RightHand  0.102208 3.80397 1.03159
LeftUpLeg  -0.431374 5.80578 -5.16607
LeftLeg  16.7715 4.71614 0.94896
LeftFoot  -12.2762 0.105587 3.88036
LeftToes  -5.6298e-010 8.41567e-011 -1.83319e-011
65
root  -46.034 39.6854 1.47604 68.4984 85.977 72.1181
RightUpLeg  -19.9787 2.37674 -6.76613
RightLeg  43.9366 2.66201 2.42315
RightFoot  -3.04692 -0.728707 9.72477
RightToes  3.49245e-010 0 -3.6325e-017
Spine  6.51922 -0.702117 -6.81077
Spine1  5.41733 -1.37165 -0.54956
HEad  -4.79986 4.30021 -1.65867
LeftShoulder1  -0.614537 5.12557 -31.7424
LeftArm  8.04519 -9.94454 -42.55
LeftForeArm  22.4658 -17.9257 -6.00068
LeftHand  -0.0166679 7.36764 1.28017
RightShoulder  -0.85702 -5.92302 28.8283
RightArm  22.7299 -12.6049 46.338
RightForeArm  15.1356 17.0063 5.51046
RightHand  0.104461 3.43492 1.12215
LeftUpLeg  1.90971 6.21344 -4.63358
LeftLeg  15.5007 4.26265 0.589012
LeftFoot  -13.1202 0.141923 4.06982
LeftToes  -5.6298e-010 8.41567e-011 -1.83319e-011
66
root  -45.0679 39.6626 1.29653 69.8469 86.3206 73.351
RightUpLeg  -20.2333 0.750547 -5.75048
RightLeg  33.4954 3.29205 2.1167
RightFoot  -2.85133 -0.704558 9.21072
RightToes  3.49245e-010 0 -3.6325e-017
Spine  6.6622 -0.998342 -6.54185
Spine1  5.01501 -1.67766 0.107734
HEad  -4.96292 4.02591 -1.93241
LeftShoulder1  -0.569989 5.01476 -31.5811
LeftArm  11.7159 -12.259 -42.8561
LeftForeArm  19.3933 -20.2971 -4.93644
LeftHand  -0.0189306 6.59011 1.4514
RightShoulder  -0.879758 -5.99786 28.688
RightArm  21.4147 -12.538 46.3562
RightForeArm  15.0347 16.2142 5.71278
RightHand  0.0155519 3.75226 -0.0668054
LeftUpLeg  4.02834 6.3999 -4.39609
LeftLeg  14.3019 3.94606 0.394861
LeftFoot  -14.0949 0.184726 4.15405
LeftToes  -5.6298e-010 8.41567e-011 -1.83319e-011
67
root  -44.1029 39.6154 1.12405 75.9409 86.5271 79.3745
RightUpLeg  -19.7254 -0.790255 -4.96541
RightLeg  21.995 3.68906 1.42888
RightFoot  -2.74962 -0.712794 9.23212
RightToes  3.49245e-010 0 -3.6325e-017
Spine  6.98414 -1.23336 -6.19443
Spine1  4.64907 -1.91172 0.711667
HEad  -5.27769 3.91078 -1.84314
LeftShoulder1  -0.53147 4.91696 -31.4499
LeftArm  14.6121 -14.3555 -43.1781
LeftForeArm  17.7388 -22.5582 -4.23989
LeftHand  -0.0210571 6.24842 1.49333
RightShoulder  -0.891392 -6.04619 28.4778
RightArm  19.6423 -11.9847 46.3923
RightForeArm  15.734 14.7758 6.07665
RightHand  0.00496569 5.1687 -0.260534
LeftUpLeg  6.25352 6.52726 -4.3292
LeftLeg  12.9622 3.49349 0.114654
LeftFoot  -14.9156 0.226504 4.38503
LeftToes  -5.6298e-010 8.41567e-011 -1.83319e-011
68
root  -43.0414 39.4867 0.998011 72.2318 86.3158 75.6386
RightUpLeg  -18.9447 -1.9617 -4.16672
RightLeg  11.0038 4.84875 0.632127
RightFoot  -3.48979 -0.691847 9.70068
RightToes  3.49245e-010 0 -3.6325e-017
Spine  6.68409 -1.14432 -5.71655
Spine1  5.06016 -1.6803 0.58957
HEad  -6.02486 2.95655 -1.8703
LeftShoulder1  -0.431376 4.6769 -30.6252
LeftArm  14.5894 -15.5059 -43.9829
LeftForeArm  18.0893 -24.5848 -4.26858
LeftHand  -0.0164058 6.39756 1.88217
RightShoulder  -0.840657 -5.89011 28.6268
RightArm  17.8196 -11.7674 46.3206
RightForeArm  18.0312 14.0023 6.02672
RightHand  0.0724364 3.90917 0.631496
LeftUpLeg  8.61619 6.76765 -4.42529
LeftLeg  11.861 3.65129 -0.137893
LeftFoot  -16.0854 0.279109 4.40309
LeftToes  -5.6298e-010 8.41567e-011 -1.83319e-011
69
root  -41.9715 39.3437 0.869622 75.9467 86.2593 79.0913
RightUpLeg  -18.6874 -4.61455 -3.02749
RightLeg  2.10212 7.23245 -0.228019
RightFoot  -3.88861 -0.614634 9.02393
RightToes  3.49245e-010 0 -3.6325e-017
Spine  6.61796 -1.18548 -4.88919
Spine1  5.06782 -1.60049 0.474822
HEad  -6.76692 1.98062 -2.19268
LeftShoulder1  -0.392308 4.59032 -29.963
LeftArm  14.1099 -16.2012 -44.9061
LeftForeArm  19.0824 -26.1074 -4.58621
LeftHand  -0.0220925 5.86473 1.93648
RightShoulder  -0.836183 -5.8569 28.9294
RightArm  16.7078 -11.2073 45.8828
RightForeArm  19.9613 13.0867 6.09195
RightHand  0.231954 4.04005 2.54059
LeftUpLeg  10.6439 6.70084 -4.62431
LeftLeg  10.8616 3.5583 -0.179904
LeftFoot  -17.1551 0.321015 4.28572
LeftToes  -5.6298e-010 8.41567e-011 -1.83319e-011
70
root  -40.8338 39.0973 0.784751 80.9122 86.1255 84.0703
RightUpLeg  -18.8153 -4.99545 -2.98371
RightLeg  -2.16253 6.47844 -0.285825
RightFoot  -4.54106 -0.593116 9.42442
RightToes  3.49245e-010 0 -3.6325e-017
Spine  6.8002 -1.14326 -4.28001
Spine1  5.14607 -1.5473 0.624626
HEad  -6.80599 1.98721 -2.08689
LeftShoulder1  -0.409323 4.62903 -30.2333
LeftArm  14.2432 -16.5036 -45.2548
LeftForeArm  19.6862 -27.5968 -4.88437
LeftHand  -0.0213947 5.78996 1.73984
RightShoulder  -0.845946 -5.90842 28.5791
RightArm  15.6193 -10.2868 46.0099
RightForeArm  19.6462 11.8238 6.37034
RightHand  0.0765399 3.27472 0.844942
LeftUpLeg  12.6358 6.74524 -4.74146
LeftLeg  10.9025 3.15715 -0.133108
LeftFoot  -18.801 0.369859 3.95157
LeftToes  -5.6298e-010 8.41567e-011 -1.83319e-011
71
root  -39.5879 38.7791 0.761113 85.0121 86.3041 88.3701
RightUpLeg  -19.6004 -4.84581 -2.67675
RightLeg  0.137373 2.62992 0.137197
RightFoot  -4.49513 -0.551418 8.60996
RightToes  3.49245e-010 0 -3.6325e-017
Spine  6.94322 -1.07215 -3.3734
Spine1  5.45801 -1.41693 0.521465
HEad  -7.4226 1.70806 -2.33222
LeftShoulder1  -0.36129 4.49356 -30.3591
LeftArm  14.0842 -16.0201 -45.858
LeftForeArm  20.4748 -28.6285 -5.077
LeftHand  -0.012492 5.56907 2.45469
RightShoulder  -0.837123 -5.87822 28.6507
RightArm  15.0575 -9.26229 45.7619
RightForeArm  19.566 10.9356 6.55801
RightHand  -0.00381254 4.10932 -0.345167
LeftUpLeg  14.6065 7.15176 -4.19113
LeftLeg  11.8649 2.03716 -0.0646653
LeftFoot  -20.8271 0.382142 3.10522
LeftToes  -5.6298e-010 8.41567e-011 -1.83319e-011
72
root  -38.2899 38.4915 0.753765 87.4439 86.5404 90.8537
RightUpLeg  -20.827 -4.88167 -2.09807
RightLeg  5.5863 -1.15579 0.272377
RightFoot  -2.51057 -0.44678 5.86932
RightToes  3.49245e-010 0 -3.6325e-017
Spine  6.91297 -1.04589 -2.23904
Spine1  5.97165 -1.35156 0.460269
HEad  -8.23502 1.34537 -2.77528
LeftShoulder1  -0.350349 4.4593 -30.5306
LeftArm  13.8589 -14.5083 -46.1868
LeftForeArm  21.1224 -29.6873 -5.28667
LeftHand  -0.0196619 5.81444 2.28068
RightShoulder  -0.848148 -5.90295 28.7515
RightArm  14.8497 -7.35912 45.6323
RightForeArm  21.5208 9.47586 6.90995
RightHand  0.0303192 2.46455 0.184233
LeftUpLeg  16.322 7.22862 -3.74647
LeftLeg  13.0473 1.46931 0.285359
LeftFoot  -22.1946 0.310788 1.85663
LeftToes  -5.6298e-010 8.41567e-011 -1.83319e-011
73
root  -36.912 38.4056 0.770657 108.658 87.475 112.078
RightUpLeg  -21.6082 -5.557 -0.6742
RightLeg  10.2164 -1.23389 0.333305
RightFoot  2.44226 -0.0232255 0.273914
RightToes  3.49245e-010 0 -3.6325e-017
Spine  6.44612 -1.4357 0.0858482
Spine1  6.83549 -1.76133 0.718906
HEad  -8.19742 1.57748 -3.09909
LeftShoulder1  -0.333018 4.40449 -30.8316
LeftArm  14.7736 -12.0488 -46.1104
LeftForeArm  20.976 -29.9646 -5.36046
LeftHand  -0.0240095 5.80562 1.9862
RightShoulder  -0.834641 -5.86071 28.805
RightArm  14.4206 -6.01434 45.4792
RightForeArm  22.6787 8.44757 7.01877
RightHand  0.0960266 3.95178 0.881826
LeftUpLeg  18.1351 6.62012 -2.17342
LeftLeg  13.9366 0.284885 0.502316
LeftFoot  -22.0809 0.116177 -0.168506
LeftToes  -5.6298e-010 8.41567e-011 -1.83319e-011
74
root  -35.3976 38.3053 0.803581 155.755 88.5016 159.058
RightUpLeg  -22.1682 -5.54962 0.948988
RightLeg  14.5821 -0.122835 0.216956
RightFoot  6.92291 0.246445 -1.29948
RightToes  3.49245e-010 0 -3.6325e-017
Spine  6.03482 -1.58523 3.11437
Spine1  6.67438 -1.69654 0.376265
HEad  -7.36183 1.17066 -3.2687
LeftShoulder1  -0.387234 4.53404 -31.4428
LeftArm  17.2264 -8.96722 -45.9108
LeftForeArm  19.9017 -28.8634 -5.16255
LeftHand  -0.0254426 5.9473 2.41223
RightShoulder  -0.862331 -5.91819 29.1183
RightArm  14.0044 -5.36499 45.0226
RightForeArm  22.4375 7.57681 7.02705
RightHand  -0.0278945 2.78814 -0.596216
LeftUpLeg  19.2028 5.68386 -0.236075
LeftLeg  16.4484 -0.684512 0.253952
LeftFoot  -21.5579 -0.155647 -3.1675
LeftToes  -5.6298e-010 8.41567e-011 -1.83319e-011
75
root  -33.8682 38.1841 0.846685 -116.851 89.6594 -113.882
RightUpLeg  -23.124 -4.09558 2.74683
RightLeg  20.2191 0.227939 -0.153729
RightFoot  4.61929 0.426615 -2.82894
RightToes  3.49245e-010 0 -3.6325e-017
Spine  5.54361 -1.15692 6.80464
Spine1  6.35975 -0.618485 -1.06402
HEad  -6.19029 1.51143 -3.80707
LeftShoulder1  -0.463871 4.7185 -32.0498
LeftArm  19.2086 -4.99477 -45.4654
LeftForeArm  19.0561 -27.2167 -4.81485
LeftHand  -0.0231799 5.69037 1.96696
RightShoulder  -0.865763 -5.91357 29.328
RightArm  13.0712 -4.5141 44.8824
RightForeArm  21.0711 6.5457 6.79577
RightHand  -0.0308077 4.56524 -0.629092
LeftUpLeg  18.6395 5.81893 1.58039
LeftLeg  21.7022 -1.36473 -0.307349
LeftFoot  -19.7634 -0.45459 -7.90256
LeftToes  -5.6298e-010 8.41567e-011 -1.83319e-011
